<?xml version="1.0" encoding="UTF-8"?>
<svg id="Capa_1" xmlns="http://www.w3.org/2000/svg" version="1.1" viewBox="0 0 1000 255.34">
  <!-- Generator: Adobe Illustrator 29.5.0, SVG Export Plug-In . SVG Version: 2.1.0 Build 137)  -->
  <defs>
    <style>
      .st0 {
        fill: #0047ba;
      }
    </style>
  </defs>
  <path class="st0" d="M36.13,224.9h59.97c60.25,0,102.71-39.76,102.71-97.26S156.06,30.38,96.09,30.38h-59.97v194.52Z"/>
  <rect class="st0" x="219.89" y="121.9" width="58.71" height="16.66"/>
  <path class="st0" d="M236.6,78.21v-33.19h5.25c13.37,0,19.57,5.47,19.57,16.66s-5.97,16.54-19.57,16.54h-5.25ZM219.89,111.29h16.71v-18.44h5.73c22.55,0,36.28-11.66,36.28-31.17s-13.6-31.29-36.28-31.29h-22.43v80.9Z"/>
  <path class="st0" d="M912.31,116.67l11.58-25.91h.35l11.81,25.91h-23.74ZM887.03,144.82h10.28c1.89,0,2.95-1.18,3.43-2.36l5.79-12.72h35.32l5.79,12.72c.83,1.65,1.66,2.36,3.43,2.36h10.28c1.77,0,2.71-1.53,2.01-3.06l-36.38-79.26c-.36-.71-.83-1.29-2.01-1.29h-1.18c-1.06,0-1.65.59-2.01,1.29l-36.74,79.26c-.71,1.53.24,3.06,2.01,3.06M806.59,103.71c0,23.56,19.02,42.28,42.64,42.28,10.51,0,20.67-3.65,28.71-11.43.83-.82,1.06-2.36.12-3.18l-7.32-7.54c-.71-.71-2.01-.82-2.95,0-4.97,4.01-10.99,6.71-18.08,6.71-15.12,0-26.46-12.48-26.46-27.2s11.22-27.44,26.34-27.44c6.62,0,13.23,2.59,18.19,6.95.94.94,2.12.94,2.95,0l7.21-7.42c.95-.94.95-2.36-.12-3.3-8.03-7.19-16.65-10.95-28.59-10.95-23.62,0-42.64,18.96-42.64,42.51M773.28,142.58c0,1.18,1.06,2.24,2.25,2.24h10.99c1.18,0,2.24-1.06,2.24-2.24v-77.96c0-1.18-1.06-2.24-2.24-2.24h-10.99c-1.18,0-2.25,1.06-2.25,2.24v77.96ZM662.37,142.11c-.24,1.65.71,2.71,2.24,2.71h10.63c1.06,0,2.01-.94,2.12-1.77l6.85-44.64h.36l20.91,46.28c.36.71.95,1.3,2.01,1.3h2.13c1.06,0,1.77-.59,2.01-1.3l20.67-46.28h.35l6.97,44.64c.23.82,1.18,1.77,2.24,1.77h10.75c1.53,0,2.48-1.06,2.12-2.71l-13.94-79.14c-.12-.94-.83-1.77-2.13-1.77h-1.89c-1.06,0-1.66.47-2.01,1.18l-25.99,55.59h-.35l-25.99-55.59c-.35-.71-1.06-1.18-2.01-1.18h-1.89c-1.3,0-2.01.82-2.12,1.77l-14.06,79.14ZM607.2,54.37l20.67-9.07c1.06-.47,1.53-1.77.71-3.18l-3.31-6.12c-.59-1.06-1.77-1.18-3.07-.36l-19.37,11.54c-.59.36-1.18,1.3-.71,2.24l2.12,4.12c.47,1.06,1.3,1.53,2.95.83M603.66,116.67l11.58-25.91h.36l11.81,25.91h-23.74ZM578.38,144.82h10.28c1.89,0,2.95-1.18,3.43-2.36l5.79-12.72h35.32l5.79,12.72c.83,1.65,1.66,2.36,3.43,2.36h10.27c1.77,0,2.72-1.53,2.01-3.06l-36.39-79.26c-.35-.71-.83-1.29-2.01-1.29h-1.18c-1.06,0-1.66.59-2.01,1.29l-36.74,79.26c-.71,1.53.23,3.06,2.01,3.06M493.45,142.58c0,1.18,1.06,2.24,2.25,2.24h10.75c1.3,0,2.25-1.06,2.25-2.24v-50.64h.12l49.38,54.06h2.83c1.18,0,2.25-.94,2.25-2.12v-79.26c0-1.18-1.06-2.24-2.25-2.24h-10.86c-1.3,0-2.25,1.06-2.25,2.24v48.64h-.12l-49.14-52.05h-2.95c-1.18,0-2.25.94-2.25,2.12v79.26ZM454.12,142.58c0,1.18,1.06,2.24,2.24,2.24h10.99c1.18,0,2.25-1.06,2.25-2.24v-77.96c0-1.18-1.06-2.24-2.25-2.24h-10.99c-1.18,0-2.24,1.06-2.24,2.24v77.96ZM379.82,130.45v-53.82h13.47c15.36,0,26.58,11.54,26.58,26.85s-11.22,26.97-26.58,26.97h-13.47ZM364.58,142.58c0,1.18.95,2.24,2.12,2.24h28c22.8,0,41.46-18.49,41.46-41.34s-18.67-41.1-41.46-41.1h-28c-1.18,0-2.12,1.06-2.12,2.24v77.96Z"/>
  <path class="st0" d="M726.83,206.74l5.82-13.03h.18l5.94,13.03h-11.94ZM714.11,220.89h5.17c.95,0,1.49-.59,1.73-1.19l2.91-6.4h17.77l2.91,6.4c.42.83.83,1.19,1.72,1.19h5.17c.89,0,1.37-.77,1.01-1.54l-18.3-39.86c-.18-.36-.41-.65-1.01-.65h-.59c-.53,0-.84.29-1.01.65l-18.48,39.86c-.36.77.12,1.54,1.01,1.54M662.77,219.53c-.12.83.36,1.37,1.13,1.37h5.35c.53,0,1.01-.48,1.07-.89l3.44-22.45h.18l10.52,23.28c.18.36.47.65,1.01.65h1.07c.53,0,.89-.29,1.01-.65l10.4-23.28h.18l3.5,22.45c.12.41.6.89,1.13.89h5.41c.77,0,1.25-.53,1.07-1.37l-7.01-39.8c-.06-.48-.42-.89-1.07-.89h-.95c-.53,0-.83.23-1.01.59l-13.07,27.95h-.18l-13.07-27.95c-.18-.36-.53-.59-1.01-.59h-.95c-.65,0-1.01.41-1.07.89l-7.07,39.8ZM632.57,198.33v-11.8h9.69c3.15,0,5.89,2.61,5.89,5.75,0,3.32-2.74,6.05-5.89,6.05h-9.69ZM624.79,219.77c0,.59.47,1.13,1.13,1.13h5.46c.59,0,1.13-.53,1.13-1.13v-15.11h6.6l7.9,15.7c.12.23.42.53.95.53h6.23c1.01,0,1.43-.95,1.01-1.72l-8.13-15.05c5.16-2.07,8.79-6.51,8.79-11.96,0-7.05-5.82-12.74-12.95-12.74h-16.99c-.66,0-1.13.53-1.13,1.13v39.21ZM580.86,200.22c0-7.46,6.12-13.69,13.61-13.69s13.67,6.22,13.67,13.69-6.18,13.57-13.67,13.57-13.61-6.1-13.61-13.57M573.14,200.22c0,11.85,9.44,21.26,21.33,21.26s21.38-9.41,21.38-21.26-9.5-21.38-21.38-21.38-21.33,9.53-21.33,21.38M541.46,219.77c0,.59.47,1.13,1.13,1.13h5.46c.59,0,1.13-.53,1.13-1.13v-14.99h14.68c.59,0,1.13-.53,1.13-1.13v-4.85c0-.59-.53-1.13-1.13-1.13h-14.68v-11.14h17.59c.66,0,1.13-.53,1.13-1.13v-4.85c0-.59-.47-1.13-1.13-1.13h-24.17c-.66,0-1.13.53-1.13,1.13v39.21ZM509.24,206.74l5.82-13.03h.18l5.94,13.03h-11.94ZM496.53,220.89h5.17c.95,0,1.48-.59,1.72-1.19l2.91-6.4h17.77l2.91,6.4c.42.83.84,1.19,1.73,1.19h5.16c.89,0,1.37-.77,1.01-1.54l-18.3-39.86c-.18-.36-.42-.65-1.01-.65h-.59c-.53,0-.84.29-1.01.65l-18.48,39.86c-.36.77.12,1.54,1.01,1.54M477.87,219.77c0,.59.53,1.13,1.13,1.13h5.52c.6,0,1.13-.53,1.13-1.13v-33.23h9.09c.65,0,1.13-.53,1.13-1.13v-4.85c0-.59-.47-1.13-1.13-1.13h-25.96c-.65,0-1.13.53-1.13,1.13v4.85c0,.59.47,1.13,1.13,1.13h9.09v33.23ZM442.26,206.74l5.82-13.03h.18l5.94,13.03h-11.94ZM429.55,220.89h5.16c.95,0,1.49-.59,1.73-1.19l2.91-6.4h17.77l2.91,6.4c.42.83.83,1.19,1.72,1.19h5.17c.89,0,1.37-.77,1.01-1.54l-18.3-39.86c-.18-.36-.42-.65-1.01-.65h-.59c-.53,0-.84.29-1.01.65l-18.48,39.86c-.36.77.12,1.54,1.01,1.54M400.9,219.77c0,.59.47,1.13,1.13,1.13h21.74c.65,0,1.13-.53,1.13-1.13v-4.85c0-.59-.48-1.13-1.13-1.13h-15.15v-33.23c0-.59-.53-1.13-1.13-1.13h-5.46c-.66,0-1.13.53-1.13,1.13v39.21ZM372.3,198.63v-11.91h6.9c3.33,0,6.12,2.49,6.12,5.75,0,3.5-2.79,6.16-6.12,6.16h-6.9ZM364.58,219.77c0,.59.47,1.13,1.13,1.13h5.46c.59,0,1.13-.53,1.13-1.13v-13.92h7.43c7.25,0,13.25-5.98,13.25-13.32s-5.99-13.09-13.31-13.09h-13.96c-.65,0-1.13.53-1.13,1.13v39.21Z"/>
</svg>