<?xml version="1.0" encoding="UTF-8"?>
<svg id="Capa_1" xmlns="http://www.w3.org/2000/svg" version="1.1" viewBox="0 0 704.11 204.66">
  <!-- Generator: Adobe Illustrator 29.5.1, SVG Export Plug-In . SVG Version: 2.1.0 Build 141)  -->
  <defs>
    <style>
      .st0 {
        fill: #d51224;
      }

      .st1 {
        opacity: .21;
      }

      .st1, .st2 {
        isolation: isolate;
      }

      .st3 {
        fill: #00718b;
      }

      .st4 {
        fill: #575756;
      }

      .st5 {
        fill: #78c7c9;
      }

      .st6 {
        fill: #f0ae00;
      }

      .st7 {
        fill: #b7cd1c;
      }
    </style>
  </defs>
  <rect class="st4" x="244.63" y="109.08" width="406.79" height="2.26"/>
  <g>
    <path class="st4" d="M264.99,146.96h-3.05l-2.53-6.48h-9.23l-2.52,6.48h-3.04l8.74-22.37h2.86l8.75,22.37h.02ZM258.39,137.8l-3.59-9.1-3.55,9.1h7.15-.01Z"/>
    <path class="st4" d="M285.01,146.96h-2.65l-10.23-16.75v16.75h-2.83v-22.37h2.67l10.26,16.76v-16.76h2.78v22.37h0Z"/>
    <path class="st4" d="M306.11,127.35h-6.83v19.61h-2.83v-19.61h-6.81v-2.76h16.47v2.76h0Z"/>
    <path class="st4" d="M327.07,135.77c0,3.31-.6,5.84-1.79,7.63-1.69,2.57-4.12,3.85-7.27,3.85s-5.6-1.29-7.29-3.85c-1.19-1.79-1.79-4.33-1.79-7.63s.59-5.83,1.79-7.63c1.71-2.56,4.15-3.83,7.29-3.83s5.58,1.27,7.27,3.83c1.2,1.8,1.79,4.34,1.79,7.63ZM324.25,135.77c0-2.75-.45-4.79-1.34-6.11-1.14-1.71-2.78-2.57-4.9-2.57s-3.77.85-4.92,2.57c-.89,1.33-1.34,3.36-1.34,6.11s.45,4.79,1.34,6.13c1.15,1.71,2.77,2.56,4.92,2.56s3.76-.85,4.9-2.56c.9-1.34,1.34-3.39,1.34-6.13Z"/>
    <path class="st4" d="M346.11,127.35h-11.45v6.76h10.26v2.6h-10.26v10.25h-2.78v-22.37h14.23s0,2.76,0,2.76Z"/>
    <path class="st4" d="M367.48,146.96h-3.04l-2.54-6.48h-9.23l-2.5,6.48h-3.03l8.75-22.37h2.84l8.75,22.37h0ZM360.88,137.8l-3.59-9.1-3.56,9.1h7.15Z"/>
    <path class="st4" d="M387.06,134.78l-.03,12.18h-2.53v-2.31c-.62.99-1.37,1.68-2.27,2.09-.8.34-1.82.51-3.08.51-3.08,0-5.39-1.2-6.94-3.6-1.32-2.03-1.97-4.66-1.97-7.89s.67-5.9,2-7.91c1.58-2.37,3.92-3.55,7.03-3.55,1.59,0,2.98.37,4.18,1.08,1,.59,2.07,1.58,3.2,2.94l-2.14,1.77c-.85-1.03-1.6-1.76-2.25-2.19-.85-.55-1.84-.82-2.99-.82-4.14,0-6.21,2.9-6.21,8.68s2.03,8.69,6.09,8.69c1.82,0,3.15-.74,4.01-2.24.71-1.19,1.06-2.77,1.06-4.75h-5.56v-2.69h8.4,0Z"/>
    <path class="st4" d="M411.42,146.96h-3.04l-2.53-6.48h-9.23l-2.51,6.48h-3.04l8.74-22.37h2.86l8.75,22.37h0ZM404.82,137.8l-3.59-9.1-3.56,9.1h7.15Z"/>
    <path class="st4" d="M431.74,140.46c0,2.09-.83,3.78-2.49,5.07-1.52,1.15-3.36,1.73-5.55,1.73-5.12,0-8.07-2.33-8.87-6.96l2.78-.48c.31,1.69.97,2.91,2.02,3.66.94.66,2.31.99,4.07.99,1.39,0,2.56-.31,3.52-.93,1.13-.75,1.7-1.78,1.7-3.07,0-1.62-1.15-2.8-3.43-3.52-2.11-.61-4.22-1.21-6.35-1.83-2.28-.99-3.43-2.62-3.43-4.89,0-1.93.77-3.42,2.31-4.46,1.35-.91,3.02-1.38,5.03-1.38s3.71.39,4.97,1.18c1.27.78,2.34,2.07,3.22,3.9l-2.56,1.18c-.65-1.33-1.37-2.23-2.15-2.73-.8-.49-1.94-.73-3.47-.73-3.01,0-4.52,1.01-4.52,3.05,0,1.3,1.14,2.28,3.43,2.94,3.95,1.15,6.05,1.81,6.35,1.95,2.28,1.13,3.42,2.92,3.42,5.36v-.03Z"/>
    <path class="st4" d="M450.99,127.35h-6.82v19.61h-2.82v-19.61h-6.83v-2.76h16.48v2.76h-.01Z"/>
    <path class="st4" d="M471.38,146.96h-3.04l-2.54-6.48h-9.22l-2.51,6.48h-3.05l8.75-22.37h2.86l8.75,22.37h0ZM464.77,137.8l-3.59-9.1-3.56,9.1h7.15Z"/>
    <path class="st4" d="M505.16,146.96h-2.82v-14.42l-5.37,14.42h-2.46l-5.36-14.32v14.32h-2.82v-22.37h2.34l7.09,18.17,6.76-18.17h2.66v22.37h-.02Z"/>
    <path class="st4" d="M514.71,146.96h-2.91v-22.37h2.91v22.37Z"/>
    <path class="st4" d="M536.99,146.96h-2.66l-10.23-16.75v16.75h-2.82v-22.37h2.66l10.26,16.76v-16.76h2.79v22.37Z"/>
    <path class="st4" d="M557.94,146.96h-14.55v-22.37h14.55v2.76h-11.76v6.79h10.28v2.57h-10.28v7.5h11.76v2.75Z"/>
    <path class="st4" d="M579.61,146.96h-3.15l-4.81-8.24c-.61-1.04-1.41-1.56-2.39-1.56h-2.93v9.8h-2.75v-22.37h7.79c2.22,0,3.97.48,5.26,1.45,1.43,1.08,2.15,2.7,2.15,4.83,0,1.56-.46,2.93-1.39,4.1-.94,1.18-2.17,1.89-3.7,2.16.15.17.34.44.6.8l5.32,9.03h0ZM576.02,130.87c0-2.37-1.55-3.55-4.65-3.55h-5.03v7.43h5.14c3.03,0,4.55-1.29,4.55-3.88h0Z"/>
    <path class="st4" d="M603.01,146.96h-3.05l-2.53-6.48h-9.23l-2.49,6.48h-3.05l8.76-22.37h2.85l8.75,22.37h-.01ZM596.4,137.8l-3.59-9.1-3.56,9.1h7.15Z"/>
    <path class="st4" d="M620.63,146.96h-13.24v-22.37h2.79v19.62h10.45v2.75Z"/>
    <path class="st4" d="M641.08,140.46c0,2.09-.83,3.78-2.5,5.07-1.5,1.15-3.35,1.73-5.55,1.73-5.1,0-8.06-2.33-8.88-6.96l2.79-.48c.3,1.69.97,2.91,2.02,3.66.94.66,2.3.99,4.06.99,1.4,0,2.57-.31,3.54-.93,1.12-.75,1.69-1.78,1.69-3.07,0-1.62-1.14-2.8-3.42-3.52-2.13-.61-4.23-1.21-6.35-1.83-2.28-.99-3.44-2.62-3.44-4.89,0-1.93.78-3.42,2.32-4.46,1.35-.91,3.02-1.38,5.04-1.38s3.7.39,4.96,1.18c1.26.78,2.32,2.07,3.2,3.9l-2.57,1.18c-.64-1.33-1.36-2.23-2.14-2.73-.79-.49-1.95-.73-3.46-.73-3.01,0-4.53,1.01-4.53,3.05,0,1.3,1.15,2.28,3.42,2.94,3.96,1.15,6.08,1.81,6.36,1.95,2.28,1.13,3.42,2.92,3.42,5.36l.02-.03Z"/>
  </g>
  <g class="st2">
    <g class="st2">
      <path class="st4" d="M250.13,96.92v-37.56h7.64v30.14h15.93v7.43h-23.57Z"/>
      <path class="st4" d="M292.27,97.35c-11.36,0-15.71-9.2-15.71-19.21s4.36-19.21,15.71-19.21,15.71,9.2,15.71,19.21-4.36,19.21-15.71,19.21ZM292.27,66.51c-6.78,0-7.97,6.19-7.97,11.62s1.18,11.62,7.97,11.62,7.96-6.19,7.96-11.62-1.13-11.62-7.96-11.62Z"/>
      <path class="st4" d="M327.36,97.46c-7.96,0-13.24-3.77-15.18-11.41l7.27-1.45c1.08,3.88,3.88,5.54,7.91,5.54,2.8,0,6.4-1.45,6.4-4.74,0-6.78-20.4-2.1-20.4-15.66,0-7.27,6.51-10.82,12.97-10.82,6.83,0,11.09,2.58,14.05,8.61l-6.62,3.07c-1.72-3.12-3.66-4.52-7.43-4.52-2.1,0-5.27.97-5.27,3.66,0,5.7,20.4,1.94,20.4,15.66,0,7.75-7,12.05-14.1,12.05Z"/>
      <path class="st4" d="M378.22,82.28h-7.26v14.64h-7.7v-37.56h14.69c7.43,0,12.81,3.44,12.81,11.46s-4.74,11.46-12.54,11.46ZM377.68,66.67h-6.73v8.34h6.73c3.01,0,5.38-.59,5.38-4.2s-2.42-4.14-5.38-4.14Z"/>
      <path class="st4" d="M395.6,96.92v-37.56h25.78v7.59h-18.08v7.05h15.77v7.27h-15.77v8.07h18.08v7.59h-25.78Z"/>
      <path class="st4" d="M427.84,96.92v-37.56h7.64v30.14h15.93v7.43h-23.57Z"/>
      <path class="st4" d="M482.09,96.92l-3.39-9.42h-12.22l-3.39,9.42h-8.29l14.42-37.56h6.67l14.53,37.56h-8.34ZM472.56,70.71l-3.61,10.06h7.26l-3.66-10.06Z"/>
      <path class="st4" d="M520.57,96.92v-17.65l-7.21,17.65h-4.79l-7.16-17.65v17.65h-7.75v-37.56h7.32l9.96,25.08,10.17-25.08h7.21v37.56h-7.75Z"/>
      <path class="st4" d="M558.4,95.04c-2.58,1.56-5.54,1.88-8.45,1.88h-14.64v-37.56h13.78c7.21,0,12.97,3.12,12.97,11.09,0,2.48-.92,5-2.69,6.73,2.74,1.83,3.98,5.06,3.98,8.29,0,3.82-1.61,7.59-4.95,9.58ZM549.2,66.67h-6.19v7.86h6.19c2.91,0,5.33-.54,5.33-4.04s-2.48-3.82-5.33-3.82ZM549.95,81.31h-6.94v8.34h6.94c3.07,0,5.7-.43,5.7-4.14s-2.64-4.2-5.7-4.2Z"/>
      <path class="st4" d="M590.32,96.92l-7.54-12.59c-1.13-1.94-1.61-2.53-3.93-2.53h-1.88v15.12h-7.7v-37.56h13.78c7.32,0,13.02,3.5,13.02,11.41,0,4.68-2.64,8.5-7.05,10.17l10.23,15.98h-8.93ZM583.11,66.78h-6.24v8.23h6.24c2.96,0,5.27-.75,5.27-4.2s-2.42-4.04-5.27-4.04Z"/>
      <path class="st4" d="M603.13,96.92v-37.56h25.78v7.59h-18.08v7.05h15.77v7.27h-15.77v8.07h18.08v7.59h-25.78Z"/>
      <path class="st4" d="M647.75,97.46c-7.96,0-13.24-3.77-15.18-11.41l7.27-1.45c1.08,3.88,3.88,5.54,7.91,5.54,2.8,0,6.4-1.45,6.4-4.74,0-6.78-20.4-2.1-20.4-15.66,0-7.27,6.51-10.82,12.97-10.82,6.83,0,11.09,2.58,14.05,8.61l-6.62,3.07c-1.72-3.12-3.66-4.52-7.43-4.52-2.1,0-5.27.97-5.27,3.66,0,5.7,20.4,1.94,20.4,15.66,0,7.75-7,12.05-14.1,12.05Z"/>
    </g>
  </g>
  <g>
    <path class="st1" d="M140.71,33.87c.26.06.51.13.77.21-.25-.08-.51-.14-.77-.21Z"/>
    <path class="st0" d="M148.91,39.56c-.9-1.37-2.07-2.61-3.5-3.61h0c-1.22-.86-2.55-1.48-3.92-1.88-.25-.07-.51-.15-.77-.21h0c-3.64-.83-7.54-.12-10.67,2.09h0c-1.37.96-2.58,2.2-3.48,3.57l-19.13,27.31c6.85-9,21.15-8.72,27.96,0,1.19,1.47,2.14,2.99,2.32,3.28.02.03.03.05.03.05l24.19,34.59,16.31-23.31-29.33-41.88h0Z"/>
    <path class="st3" d="M194.56,104.75l-16.33,23.31,29.02,41.49c4.24,6.06,12.59,7.53,18.64,3.29,6.06-4.24,7.53-12.59,3.29-18.64l-34.63-49.45h.01Z"/>
    <polygon points="107.43 66.84 107.43 66.84 107.43 66.84 107.43 66.84"/>
    <polygon class="st7" points="107.93 141.95 107.93 141.95 107.93 141.95 107.93 141.95"/>
    <path class="st5" d="M95.31,123.91c-6.72-8.6-20.71-8.98-27.67-.36l-21.49,30.63c-4.24,6.06-2.77,14.4,3.29,18.65,6.06,4.24,14.4,2.77,18.65-3.29l29.6-42.27-.02-.03s-1.03-1.7-2.35-3.33h-.01Z"/>
    <path class="st6" d="M113.98,104l23.73-33.88c-.18-.29-1.13-1.81-2.32-3.28-6.81-8.72-21.11-9-27.96,0l-10.02,14.28,11.42,15.51,5.16,7.36h-.01Z"/>
    <path d="M97.36,81.06l-30.01,42.85c.09-.12.2-.24.29-.36l29.77-42.43-.05-.07h0Z"/>
    <path class="st3" d="M113.98,104l-5.16-7.36-11.42-15.51-29.77,42.43c6.95-8.62,20.95-8.24,27.67.36,1.32,1.64,2.35,3.33,2.35,3.33l.02.03,10.36,14.81c6.89,8.86,21.07,8.55,27.85-.13,1.26-1.57,2.26-3.18,2.35-3.32l-24.26-34.64h0Z"/>
    <path class="st7" d="M107.93,141.95l11.85,16.92-11.75-16.79s-.07-.09-.11-.13h.01Z"/>
    <path class="st5" d="M178.24,81.45l-16.31,23.31-23.69,33.86h0c-.08.15-1.08,1.76-2.35,3.33-6.78,8.68-20.97,8.99-27.85.13l11.75,16.79,7.27,10.39c.9,1.37,2.11,2.61,3.48,3.57h0c4.56,3.2,10.75,3.25,15.36,0h0c1.43-1,2.6-2.23,3.5-3.61l5.13-7.32,23.7-33.84,16.33-23.31-16.33-23.31h.01Z"/>
  </g>
</svg>